<?xml version="1.0" encoding="UTF-8" standalone="no"?><svg xmlns="http://www.w3.org/2000/svg" xmlns:xlink="http://www.w3.org/1999/xlink" contentScriptType="application/ecmascript" contentStyleType="text/css" height="509px" preserveAspectRatio="none" style="width:1310px;height:509px;" version="1.1" viewBox="0 0 1310 509" width="1310px" zoomAndPan="magnify"><defs/><g><ellipse cx="92.441" cy="238.242" fill="#F8F8F8" rx="17.8492" ry="13.242" style="stroke: #383838; stroke-width: 0.5;"/><text fill="#000000" font-family="Tahoma, sans-serif" font-size="12" lengthAdjust="spacingAndGlyphs" textLength="21" x="81.941" y="241.9842">App</text><ellipse cx="92.7756" cy="150.242" fill="#F8F8F8" rx="41.1838" ry="13.242" style="stroke: #383838; stroke-width: 0.5;"/><text fill="#000000" font-family="Tahoma, sans-serif" font-size="12" font-weight="bold" lengthAdjust="spacingAndGlyphs" textLength="54" x="65.7756" y="153.9842">App.test</text><ellipse cx="1138.1733" cy="440.242" fill="#F8F8F8" rx="51.0833" ry="13.242" style="stroke: #383838; stroke-width: 0.5;"/><text fill="#000000" font-family="Tahoma, sans-serif" font-size="12" lengthAdjust="spacingAndGlyphs" textLength="68" x="1104.1733" y="443.9842">cart.actions</text><ellipse cx="376.1753" cy="54.242" fill="#F8F8F8" rx="51.0833" ry="13.242" style="stroke: #383838; stroke-width: 0.5;"/><text fill="#000000" font-family="Tahoma, sans-serif" font-size="12" lengthAdjust="spacingAndGlyphs" textLength="68" x="342.1753" y="57.9842">cart.reducer</text><!--entity _cart_types--><rect fill="#F8F8F8" height="34.4844" rx="3" ry="3" style="stroke: #000000; stroke-width: 0.5;" width="76" x="1223.09" y="233"/><text fill="#000000" font-family="Tahoma, sans-serif" font-size="12" lengthAdjust="spacingAndGlyphs" textLength="56" x="1233.09" y="255.0059">cart.types</text><ellipse cx="507.7402" cy="21.242" fill="#F8F8F8" rx="37.6482" ry="13.242" style="stroke: #383838; stroke-width: 0.5;"/><text fill="#000000" font-family="Tahoma, sans-serif" font-size="12" lengthAdjust="spacingAndGlyphs" textLength="49" x="483.2402" y="24.9842">cart.utils</text><ellipse cx="809.2933" cy="395.9403" fill="#F8F8F8" rx="57.7013" ry="13.9403" style="stroke: #383838; stroke-width: 0.5;"/><text fill="#000000" font-family="Tahoma, sans-serif" font-size="12" lengthAdjust="spacingAndGlyphs" textLength="82" x="768.2933" y="399.6824">CartDropdown</text><ellipse cx="808.9473" cy="440.242" fill="#F8F8F8" rx="38.3553" ry="13.242" style="stroke: #383838; stroke-width: 0.5;"/><text fill="#000000" font-family="Tahoma, sans-serif" font-size="12" lengthAdjust="spacingAndGlyphs" textLength="50" x="783.9473" y="443.9842">CartIcon</text><ellipse cx="808.9264" cy="484.1669" fill="#F8F8F8" rx="58.8344" ry="14.1669" style="stroke: #383838; stroke-width: 0.5;"/><text fill="#000000" font-family="Tahoma, sans-serif" font-size="12" lengthAdjust="spacingAndGlyphs" textLength="85" x="766.4264" y="487.9091">CollectionItem</text><ellipse cx="651.2328" cy="444.9282" fill="#F8F8F8" rx="65.1408" ry="15.4282" style="stroke: #383838; stroke-width: 0.5;"/><text fill="#000000" font-family="Tahoma, sans-serif" font-size="12" lengthAdjust="spacingAndGlyphs" textLength="101" x="600.7328" y="448.6704">CollectionPreview</text><ellipse cx="960.1691" cy="376.0154" fill="#F8F8F8" rx="58.0771" ry="14.0154" style="stroke: #383838; stroke-width: 0.5;"/><text fill="#000000" font-family="Tahoma, sans-serif" font-size="12" lengthAdjust="spacingAndGlyphs" textLength="83" x="918.6691" y="379.7576">CustomButton</text><ellipse cx="650.8616" cy="115.242" fill="#F8F8F8" rx="39.7696" ry="13.242" style="stroke: #383838; stroke-width: 0.5;"/><text fill="#000000" font-family="Tahoma, sans-serif" font-size="12" lengthAdjust="spacingAndGlyphs" textLength="52" x="624.8616" y="118.9842">Directory</text><ellipse cx="960.0068" cy="268.783" fill="#F8F8F8" rx="54.4148" ry="13.283" style="stroke: #383838; stroke-width: 0.5;"/><text fill="#000000" font-family="Tahoma, sans-serif" font-size="12" lengthAdjust="spacingAndGlyphs" textLength="73" x="923.5068" y="272.5251">firebase.utils</text><ellipse cx="809.3113" cy="212.242" fill="#F8F8F8" rx="44.7193" ry="13.242" style="stroke: #383838; stroke-width: 0.5;"/><text fill="#000000" font-family="Tahoma, sans-serif" font-size="12" lengthAdjust="spacingAndGlyphs" textLength="59" x="779.8113" y="215.9842">FormInput</text><ellipse cx="650.8763" cy="360.242" fill="#F8F8F8" rx="31.2843" ry="13.242" style="stroke: #383838; stroke-width: 0.5;"/><text fill="#000000" font-family="Tahoma, sans-serif" font-size="12" lengthAdjust="spacingAndGlyphs" textLength="40" x="630.8763" y="363.9842">Header</text><ellipse cx="236.4326" cy="191.242" fill="#F8F8F8" rx="46.8406" ry="13.242" style="stroke: #383838; stroke-width: 0.5;"/><text fill="#000000" font-family="Tahoma, sans-serif" font-size="12" lengthAdjust="spacingAndGlyphs" textLength="62" x="205.4326" y="194.9842">HomePage</text><ellipse cx="92.8405" cy="64.242" fill="#F8F8F8" rx="27.7487" ry="13.242" style="stroke: #383838; stroke-width: 0.5;"/><text fill="#000000" font-family="Tahoma, sans-serif" font-size="12" font-weight="bold" lengthAdjust="spacingAndGlyphs" textLength="35" x="75.3405" y="67.9842">index</text><ellipse cx="808.8971" cy="99.242" fill="#F8F8F8" rx="43.3051" ry="13.242" style="stroke: #383838; stroke-width: 0.5;"/><text fill="#000000" font-family="Tahoma, sans-serif" font-size="12" lengthAdjust="spacingAndGlyphs" textLength="57" x="780.3971" y="102.9842">MenuItem</text><ellipse cx="236.5895" cy="97.242" fill="#F8F8F8" rx="52.4975" ry="13.242" style="stroke: #383838; stroke-width: 0.5;"/><text fill="#000000" font-family="Tahoma, sans-serif" font-size="12" lengthAdjust="spacingAndGlyphs" textLength="70" x="201.5895" y="100.9842">rootReducer</text><ellipse cx="92.4193" cy="193.8655" fill="#F8F8F8" rx="57.3275" ry="13.8655" style="stroke: #383838; stroke-width: 0.5;"/><text fill="#000000" font-family="Tahoma, sans-serif" font-size="12" lengthAdjust="spacingAndGlyphs" textLength="81" x="51.9193" y="197.6077">serviceWorker</text><ellipse cx="236.6042" cy="395.242" fill="#F8F8F8" rx="44.0122" ry="13.242" style="stroke: #383838; stroke-width: 0.5;"/><text fill="#000000" font-family="Tahoma, sans-serif" font-size="12" lengthAdjust="spacingAndGlyphs" textLength="58" x="207.6042" y="398.9842">ShopPage</text><ellipse cx="651.255" cy="189.242" fill="#F8F8F8" rx="29.163" ry="13.242" style="stroke: #383838; stroke-width: 0.5;"/><text fill="#000000" font-family="Tahoma, sans-serif" font-size="12" lengthAdjust="spacingAndGlyphs" textLength="37" x="632.755" y="192.9842">SignIn</text><ellipse cx="236.3616" cy="238.242" fill="#F8F8F8" rx="39.7696" ry="13.242" style="stroke: #383838; stroke-width: 0.5;"/><text fill="#000000" font-family="Tahoma, sans-serif" font-size="12" lengthAdjust="spacingAndGlyphs" textLength="52" x="210.3616" y="241.9842">SignInUp</text><ellipse cx="650.8763" cy="247.242" fill="#F8F8F8" rx="31.2843" ry="13.242" style="stroke: #383838; stroke-width: 0.5;"/><text fill="#000000" font-family="Tahoma, sans-serif" font-size="12" lengthAdjust="spacingAndGlyphs" textLength="40" x="630.8763" y="250.9842">SignUp</text><ellipse cx="92.805" cy="107.242" fill="#F8F8F8" rx="24.2132" ry="13.242" style="stroke: #383838; stroke-width: 0.5;"/><text fill="#000000" font-family="Tahoma, sans-serif" font-size="12" lengthAdjust="spacingAndGlyphs" textLength="30" x="77.805" y="110.9842">store</text><ellipse cx="376.2966" cy="140.242" fill="#F8F8F8" rx="53.2046" ry="13.242" style="stroke: #383838; stroke-width: 0.5;"/><text fill="#000000" font-family="Tahoma, sans-serif" font-size="12" lengthAdjust="spacingAndGlyphs" textLength="71" x="340.7966" y="143.9842">user.actions</text><ellipse cx="376.2966" cy="97.242" fill="#F8F8F8" rx="53.2046" ry="13.242" style="stroke: #383838; stroke-width: 0.5;"/><text fill="#000000" font-family="Tahoma, sans-serif" font-size="12" lengthAdjust="spacingAndGlyphs" textLength="71" x="340.7966" y="100.9842">user.reducer</text><ellipse cx="507.8113" cy="120.242" fill="#F8F8F8" rx="44.7193" ry="13.242" style="stroke: #383838; stroke-width: 0.5;"/><text fill="#000000" font-family="Tahoma, sans-serif" font-size="12" lengthAdjust="spacingAndGlyphs" textLength="59" x="478.3113" y="123.9842">user.types</text><!--link App to firebase.utils--><path d="M109.613,242.69 C152.338,254.768 272.715,286 375.092,286 C375.092,286 375.092,286 652.092,286 C740.097,286 842.077,278.949 903.532,273.929 " fill="none" id="App-firebase.utils" style="stroke: #000000; stroke-width: 0.5;"/><polygon fill="#000000" points="908.618,273.511,899.3203,270.2625,903.6348,273.921,899.9763,278.2356,908.618,273.511" style="stroke: #000000; stroke-width: 0.5;"/><!--link App to Header--><path d="M104.6191,247.979 C120.763,261.958 152.369,287.001 184.092,299 C336.431,356.624 534.532,361.472 614.404,360.812 " fill="none" id="App-Header" style="stroke: #000000; stroke-width: 0.5;"/><polygon fill="#000000" points="619.492,360.761,610.4525,356.8512,614.4922,360.811,610.5324,364.8508,619.492,360.761" style="stroke: #000000; stroke-width: 0.5;"/><!--link App to HomePage--><path d="M109.331,232.791 C131.243,225.538 171.531,212.203 200.717,202.543 " fill="none" id="App-HomePage" style="stroke: #000000; stroke-width: 0.5;"/><polygon fill="#000000" points="205.666,200.905,195.8649,199.9359,200.9193,202.4763,198.379,207.5307,205.666,200.905" style="stroke: #000000; stroke-width: 0.5;"/><!--link App to ShopPage--><path d="M101.3216,249.445 C116.09,270.917 149.901,318.209 184.092,353 C193.574,362.648 205.173,372.269 214.962,379.863 " fill="none" id="App-ShopPage" style="stroke: #000000; stroke-width: 0.5;"/><polygon fill="#000000" points="219.034,382.988,214.3291,374.3356,215.0673,379.9441,209.4588,380.6823,219.034,382.988" style="stroke: #000000; stroke-width: 0.5;"/><!--link App to SignInUp--><path d="M110.72,238 C130.581,238 164.085,238 191.391,238 " fill="none" id="App-SignInUp" style="stroke: #000000; stroke-width: 0.5;"/><polygon fill="#000000" points="196.412,238,187.412,234,191.412,238,187.412,242,196.412,238" style="stroke: #000000; stroke-width: 0.5;"/><!--link App to user.actions--><path d="M110.189,234.567 C122.174,231.473 138.264,225.995 150.092,217 C170.613,201.393 162.115,183.479 184.092,170 C224.346,145.311 278.039,138.697 318.244,137.749 " fill="none" id="App-user.actions" style="stroke: #000000; stroke-width: 0.5;"/><polygon fill="#000000" points="323.575,137.654,314.5056,133.814,318.5758,137.7426,314.6473,141.8128,323.575,137.654" style="stroke: #000000; stroke-width: 0.5;"/><!--link <b>App.test</b> to App--><path d="M55.4227,155.685 C41.0658,159.952 26.1742,167.422 18.0918,180.5 C11.5494,191.086 11.5494,197.914 18.0918,208.5 C28.829,225.873 51.7529,233.022 69.3545,235.96 " fill="none" id="&lt;b&gt;App.test&lt;/b&gt;-App" style="stroke: #000000; stroke-width: 1.0;"/><polygon fill="#000000" points="74.6268,236.743,66.3123,231.4639,69.6811,236.0083,65.1367,239.3771,74.6268,236.743" style="stroke: #000000; stroke-width: 1.0;"/><!--link cart.actions to _cart_types--><path d="M1147.41,426.9405 C1167.88,394.795 1220.88,311.569 1246.21,271.792 " fill="none" id="cart.actions-_cart_types" style="stroke: #000000; stroke-width: 0.5;"/><polygon fill="#000000" points="1249.16,267.163,1240.9499,272.6031,1246.4728,271.3795,1247.6964,276.9025,1249.16,267.163" style="stroke: #000000; stroke-width: 0.5;"/><!--link cart.reducer to _cart_types--><path d="M426.901,55.752 C481.621,57.523 572.107,60 650.092,60 C650.092,60 650.092,60 1053.09,60 C1151.62,60 1223.53,178.279 1249.49,228.193 " fill="none" id="cart.reducer-_cart_types" style="stroke: #000000; stroke-width: 0.5;"/><polygon fill="#000000" points="1251.86,232.804,1251.2996,222.9711,1249.5726,228.3579,1244.1858,226.6309,1251.86,232.804" style="stroke: #000000; stroke-width: 0.5;"/><!--link cart.reducer to cart.utils--><path d="M412.821,44.895 C431.161,40.222 453.417,34.55 471.644,29.906 " fill="none" id="cart.reducer-cart.utils" style="stroke: #000000; stroke-width: 0.5;"/><polygon fill="#000000" points="476.671,28.625,466.962,26.971,471.8258,29.8595,468.9373,34.7233,476.671,28.625" style="stroke: #000000; stroke-width: 0.5;"/><!--link CartDropdown to CustomButton--><path d="M859.707,389.34 C873.806,387.448 889.249,385.375 903.669,383.439 " fill="none" id="CartDropdown-CustomButton" style="stroke: #000000; stroke-width: 0.5;"/><polygon fill="#000000" points="908.931,382.733,899.4794,379.9642,903.9753,383.3973,900.5422,387.8932,908.931,382.733" style="stroke: #000000; stroke-width: 0.5;"/><!--link CartIcon to cart.actions--><path d="M847.603,440 C905.073,440 1015.24,440 1081.85,440 " fill="none" id="CartIcon-cart.actions" style="stroke: #000000; stroke-width: 0.5;"/><polygon fill="#000000" points="1086.97,440,1077.97,436,1081.97,440,1077.97,444,1086.97,440" style="stroke: #000000; stroke-width: 0.5;"/><!--link CollectionItem to cart.actions--><path d="M860.827,477.1733 C922.595,468.862 1026.23,454.9175 1087.48,446.6753 " fill="none" id="CollectionItem-cart.actions" style="stroke: #000000; stroke-width: 0.5;"/><polygon fill="#000000" points="1092.55,445.994,1083.1023,443.2119,1087.5934,446.6513,1084.154,451.1425,1092.55,445.994" style="stroke: #000000; stroke-width: 0.5;"/><!--link CollectionItem to CustomButton--><path d="M845.81,472.9912 C853.436,469.9538 861.248,466.2894 868.092,462 C898.23,443.1113 927.018,413.2352 943.869,394.134 " fill="none" id="CollectionItem-CustomButton" style="stroke: #000000; stroke-width: 0.5;"/><polygon fill="#000000" points="947.483,389.994,938.5518,394.1454,944.1956,393.7614,944.5797,399.4052,947.483,389.994" style="stroke: #000000; stroke-width: 0.5;"/><!--link CollectionPreview to CollectionItem--><path d="M696.795,456.1758 C717.55,461.3645 742.177,467.5212 762.982,472.7224 " fill="none" id="CollectionPreview-CollectionItem" style="stroke: #000000; stroke-width: 0.5;"/><polygon fill="#000000" points="767.908,473.954,760.1471,467.8903,763.0573,472.7412,758.2065,475.6514,767.908,473.954" style="stroke: #000000; stroke-width: 0.5;"/><!--link Directory to MenuItem--><path d="M689.458,111.168 C711.414,108.916 739.329,106.053 762.565,103.669 " fill="none" id="Directory-MenuItem" style="stroke: #000000; stroke-width: 0.5;"/><polygon fill="#000000" points="767.752,103.137,758.391,100.0758,762.7781,103.647,759.2069,108.0341,767.752,103.137" style="stroke: #000000; stroke-width: 0.5;"/><!--link Header to CartDropdown--><path d="M678.909,366.189 C701.626,371.431 734.713,379.066 761.714,385.297 " fill="none" id="Header-CartDropdown" style="stroke: #000000; stroke-width: 0.5;"/><polygon fill="#000000" points="766.681,386.444,758.811,380.5225,761.8091,385.3196,757.012,388.3176,766.681,386.444" style="stroke: #000000; stroke-width: 0.5;"/><!--link Header to CartIcon--><path d="M668.194,371.035 C687.18,383.724 719.972,404.6488 750.092,419 C758.098,422.8147 766.994,426.359 775.366,429.4085 " fill="none" id="Header-CartIcon" style="stroke: #000000; stroke-width: 0.5;"/><polygon fill="#000000" points="780.498,431.2413,773.3673,424.4477,775.7892,429.5599,770.677,431.9818,780.498,431.2413" style="stroke: #000000; stroke-width: 0.5;"/><!--link Header to firebase.utils--><path d="M678.132,353.037 C718.826,342.067 799.902,319.858 868.092,299 C885.968,293.532 905.685,287.084 922.182,281.57 " fill="none" id="Header-firebase.utils" style="stroke: #000000; stroke-width: 0.5;"/><polygon fill="#000000" points="927.193,279.89,917.3885,278.9564,922.452,281.4784,919.93,286.5419,927.193,279.89" style="stroke: #000000; stroke-width: 0.5;"/><!--link HomePage to Directory--><path d="M280.115,186.033 C340.841,178.565 455.725,163.046 552.092,142 C573.525,137.319 597.251,130.818 615.989,125.367 " fill="none" id="HomePage-Directory" style="stroke: #000000; stroke-width: 0.5;"/><polygon fill="#000000" points="621.136,123.86,611.3748,122.5488,616.3373,125.2643,613.6217,130.2268,621.136,123.86" style="stroke: #000000; stroke-width: 0.5;"/><!--link <b>index</b> to App--><path d="M65.7894,67.086 C48.7865,70.623 28.158,78.213 18.0918,94.5 C4.7733,116.05 4.7733,186.95 18.0918,208.5 C28.829,225.873 51.7529,233.022 69.3545,235.96 " fill="none" id="&lt;b&gt;index&lt;/b&gt;-App" style="stroke: #000000; stroke-width: 1.0;"/><polygon fill="#000000" points="74.6268,236.743,66.3123,231.4639,69.6811,236.0083,65.1367,239.3771,74.6268,236.743" style="stroke: #000000; stroke-width: 1.0;"/><!--link <b>index</b> to serviceWorker--><path d="M65.7894,67.086 C48.7865,70.623 28.158,78.213 18.0918,94.5 C1.9694,120.587 1.9694,137.413 18.0918,163.5 C23.6484,172.491 32.4235,178.831 42.0306,183.303 " fill="none" id="&lt;b&gt;index&lt;/b&gt;-serviceWorker" style="stroke: #000000; stroke-width: 1.0;"/><polygon fill="#000000" points="46.8031,185.351,40.1107,178.1253,42.2085,183.3787,36.955,185.4766,46.8031,185.351" style="stroke: #000000; stroke-width: 1.0;"/><!--link <b>index</b> to store--><path d="M92.5918,77.081 C92.5918,80.935 92.5918,84.789 92.5918,88.643 " fill="none" id="&lt;b&gt;index&lt;/b&gt;-store" style="stroke: #000000; stroke-width: 1.0;"/><polygon fill="#000000" points="92.5918,93.898,96.5918,84.898,92.5918,88.898,88.5918,84.898,92.5918,93.898" style="stroke: #000000; stroke-width: 1.0;"/><!--link rootReducer to cart.reducer--><path d="M269.829,86.918 C290.258,80.53 316.747,72.246 338.041,65.587 " fill="none" id="rootReducer-cart.reducer" style="stroke: #000000; stroke-width: 0.5;"/><polygon fill="#000000" points="343.056,64.018,333.2725,62.8852,338.2837,65.5097,335.6592,70.5209,343.056,64.018" style="stroke: #000000; stroke-width: 0.5;"/><!--link rootReducer to user.reducer--><path d="M289.183,97 C298.442,97 308.144,97 317.558,97 " fill="none" id="rootReducer-user.reducer" style="stroke: #000000; stroke-width: 0.5;"/><polygon fill="#000000" points="322.754,97,313.754,93,317.754,97,313.754,101,322.754,97" style="stroke: #000000; stroke-width: 0.5;"/><!--link ShopPage to CollectionPreview--><path d="M277.519,399.8396 C349.58,408.5743 501.848,427.031 587.742,437.4425 " fill="none" id="ShopPage-CollectionPreview" style="stroke: #000000; stroke-width: 0.5;"/><polygon fill="#000000" points="592.795,438.055,584.3415,433.0015,587.8313,437.4536,583.3792,440.9434,592.795,438.055" style="stroke: #000000; stroke-width: 0.5;"/><!--link SignIn to CustomButton--><path d="M674.903,181.401 C717.42,168.777 809.749,148.804 868.092,191 C906.129,218.51 881.284,248.92 902.092,291 C914.289,315.667 932.59,341.598 945.146,358.235 " fill="none" id="SignIn-CustomButton" style="stroke: #000000; stroke-width: 0.5;"/><polygon fill="#000000" points="948.207,362.259,945.9423,352.6741,945.1801,358.2793,939.5748,357.5171,948.207,362.259" style="stroke: #000000; stroke-width: 0.5;"/><!--link SignIn to firebase.utils--><path d="M671.355,179.655 C710.453,162.097 801.091,128.655 868.092,160 C908.241,178.783 936.884,224.954 950.377,250.773 " fill="none" id="SignIn-firebase.utils" style="stroke: #000000; stroke-width: 0.5;"/><polygon fill="#000000" points="952.719,255.346,952.175,245.5122,950.439,250.8961,945.0551,249.1601,952.719,255.346" style="stroke: #000000; stroke-width: 0.5;"/><!--link SignIn to FormInput--><path d="M678.909,192.954 C702.282,196.4 736.633,201.464 764.038,205.505 " fill="none" id="SignIn-FormInput" style="stroke: #000000; stroke-width: 0.5;"/><polygon fill="#000000" points="769.07,206.247,760.7503,200.976,764.1236,205.5171,759.5825,208.8903,769.07,206.247" style="stroke: #000000; stroke-width: 0.5;"/><!--link SignInUp to SignIn--><path d="M274.561,233.608 C354.415,224.123 541.9,201.852 617.57,192.863 " fill="none" id="SignInUp-SignIn" style="stroke: #000000; stroke-width: 0.5;"/><polygon fill="#000000" points="622.822,192.239,613.4129,189.3288,617.8569,192.8289,614.3568,197.2729,622.822,192.239" style="stroke: #000000; stroke-width: 0.5;"/><!--link SignInUp to SignUp--><path d="M276.771,238.855 C356.605,240.597 537.063,244.534 614.119,246.215 " fill="none" id="SignInUp-SignUp" style="stroke: #000000; stroke-width: 0.5;"/><polygon fill="#000000" points="619.485,246.332,610.574,242.1376,614.4862,246.2235,610.4003,250.1357,619.485,246.332" style="stroke: #000000; stroke-width: 0.5;"/><!--link SignUp to CustomButton--><path d="M673.679,256.071 C726.355,278.205 861.792,335.115 925.289,361.796 " fill="none" id="SignUp-CustomButton" style="stroke: #000000; stroke-width: 0.5;"/><polygon fill="#000000" points="930.102,363.819,923.3543,356.6448,925.4924,361.882,920.2552,364.0201,930.102,363.819" style="stroke: #000000; stroke-width: 0.5;"/><!--link SignUp to firebase.utils--><path d="M682.368,249.17 C733.453,252.83 837.535,260.289 902.479,264.943 " fill="none" id="SignUp-firebase.utils" style="stroke: #000000; stroke-width: 0.5;"/><polygon fill="#000000" points="907.473,265.301,898.7817,260.6683,902.4858,264.9439,898.2103,268.6479,907.473,265.301" style="stroke: #000000; stroke-width: 0.5;"/><!--link SignUp to FormInput--><path d="M679.265,240.903 C703.837,235.391 740.328,227.203 768.206,220.949 " fill="none" id="SignUp-FormInput" style="stroke: #000000; stroke-width: 0.5;"/><polygon fill="#000000" points="773.307,219.804,763.6499,217.8702,768.4282,220.898,765.4003,225.6763,773.307,219.804" style="stroke: #000000; stroke-width: 0.5;"/><!--link store to rootReducer--><path d="M116.723,105.371 C134.112,104.146 158.671,102.417 180.956,100.848 " fill="none" id="store-rootReducer" style="stroke: #000000; stroke-width: 0.5;"/><polygon fill="#000000" points="185.969,100.495,176.7111,97.1347,180.9813,100.8449,177.271,105.1151,185.969,100.495" style="stroke: #000000; stroke-width: 0.5;"/><!--link user.actions to user.types--><path d="M421.296,133.173 C434.621,131.115 449.242,128.857 462.556,126.801 " fill="none" id="user.actions-user.types" style="stroke: #000000; stroke-width: 0.5;"/><polygon fill="#000000" points="467.783,125.994,458.2774,123.4167,462.8418,126.7583,459.5002,131.3227,467.783,125.994" style="stroke: #000000; stroke-width: 0.5;"/><!--link user.reducer to user.types--><path d="M419.495,104.531 C433.685,107.051 449.508,109.862 463.733,112.388 " fill="none" id="user.reducer-user.types" style="stroke: #000000; stroke-width: 0.5;"/><polygon fill="#000000" points="468.896,113.305,460.7338,107.7933,463.973,112.4309,459.3353,115.6701,468.896,113.305" style="stroke: #000000; stroke-width: 0.5;"/><script type="text/plantuml"><![CDATA[
@startuml

scale max 1920 width
left to right direction

skinparam nodesep 17
skinparam ranksep 34
skinparam monochrome true
skinparam shadowing false
skinparam defaultFontName Tahoma
skinparam defaultFontSize 12
skinparam roundCorner 6
skinparam dpi 150
skinparam arrowColor black
skinparam arrowThickness 0.5
skinparam packageTitleAlignment left

skinparam usecase {
  borderThickness 0.5
}

skinparam rectangle {
  borderThickness 0.5
}

skinparam component {
  borderThickness 1
}


(App)
(<b>App.test</b>)
(cart.actions)
(cart.reducer)
rectangle "cart.types" as _cart_types
(cart.utils)
(CartDropdown)
(CartIcon)
(CollectionItem)
(CollectionPreview)
(CustomButton)
(Directory)
(firebase.utils)
(FormInput)
(Header)
(HomePage)
(<b>index</b>)
(MenuItem)
(rootReducer)
(serviceWorker)
(ShopPage)
(SignIn)
(SignInUp)
(SignUp)
(store)
(user.actions)
(user.reducer)
(user.types)


(App) --> (firebase.utils)
(App) --> (Header)
(App) --> (HomePage)
(App) --> (ShopPage)
(App) --> (SignInUp)
(App) --> (user.actions)
(<b>App.test</b>) -[thickness=1]> (App)
(cart.actions) --> _cart_types
(cart.reducer) --> _cart_types
(cart.reducer) --> (cart.utils)
(CartDropdown) --> (CustomButton)
(CartIcon) ----> (cart.actions)
(CollectionItem) ----> (cart.actions)
(CollectionItem) --> (CustomButton)
(CollectionPreview) --> (CollectionItem)
(Directory) --> (MenuItem)
(Header) --> (CartDropdown)
(Header) --> (CartIcon)
(Header) ---> (firebase.utils)
(HomePage) ----> (Directory)
(<b>index</b>) -[thickness=1]> (App)
(<b>index</b>) -[thickness=1]> (serviceWorker)
(<b>index</b>) -[thickness=1]> (store)
(rootReducer) --> (cart.reducer)
(rootReducer) --> (user.reducer)
(ShopPage) ----> (CollectionPreview)
(SignIn) --> (CustomButton)
(SignIn) ---> (firebase.utils)
(SignIn) --> (FormInput)
(SignInUp) ----> (SignIn)
(SignInUp) ----> (SignUp)
(SignUp) --> (CustomButton)
(SignUp) ---> (firebase.utils)
(SignUp) --> (FormInput)
(store) --> (rootReducer)
(user.actions) --> (user.types)
(user.reducer) --> (user.types)

@enduml


' View and edit on https://arkit.pro
]]></script></g></svg>